<svg xmlns="http://www.w3.org/2000/svg" width="90.158" height="75" viewBox="0 0 90.158 75"><defs><style>.a{fill:#363636;}.b{fill:none;}</style></defs><g transform="translate(-131 -1815)"><path class="a" d="M1.181,40.5a45.845,45.845,0,0,1,90.158,0,45.845,45.845,0,0,1-90.158,0ZM46.26,61.333A20.833,20.833,0,1,0,25.427,40.5,20.833,20.833,0,0,0,46.26,61.333Z" transform="translate(129.819 1812)"/><g transform="translate(161 1837.678)"><path class="b" d="M0,0H29.645V29.645H0Z"/><path class="a" d="M15.638,5.182a7.919,7.919,0,0,1,11.239.325A8.852,8.852,0,0,1,27.2,17.258L15.635,29.375,4.074,17.258A8.854,8.854,0,0,1,4.4,5.507a7.922,7.922,0,0,1,11.242-.325Z" transform="translate(-0.814 -1.221)"/></g></g></svg>