<svg xmlns="http://www.w3.org/2000/svg" width="67.428" height="78.666" viewBox="0 0 67.428 78.666"><defs><style>.a{fill:#363636;}</style></defs><path class="a" d="M36.714,1a18.73,18.73,0,0,1,18.73,18.73v7.492H66.682a3.746,3.746,0,0,1,3.746,3.746V75.92a3.746,3.746,0,0,1-3.746,3.746H6.746A3.746,3.746,0,0,1,3,75.92V30.968a3.746,3.746,0,0,1,3.746-3.746H17.984V19.73A18.73,18.73,0,0,1,36.714,1Zm18.73,37.46H47.952v3.746a3.746,3.746,0,0,0,7.466.438l.026-.438Zm-29.968,0H17.984v3.746a3.746,3.746,0,0,0,7.466.438l.026-.438ZM36.714,8.492A11.238,11.238,0,0,0,25.495,19.071l-.019.659v7.492H47.952V19.73A11.238,11.238,0,0,0,37.373,8.511Z" transform="translate(-3 -1)"/></svg>