<svg xmlns="http://www.w3.org/2000/svg" width="24.001" height="24" viewBox="0 0 24.001 24"><defs><style>.a{fill:#a4a4a4;}</style></defs><path class="a" d="M27,20.893v4.715a1.333,1.333,0,0,1-1.24,1.331c-.583.04-1.059.061-1.427.061A21.333,21.333,0,0,1,3,5.667q0-.552.061-1.427A1.333,1.333,0,0,1,4.392,3H9.107a.667.667,0,0,1,.664.6c.031.307.059.551.085.736a18.535,18.535,0,0,0,1.611,5.335.607.607,0,0,1-.2.756L8.393,12.483a17.4,17.4,0,0,0,9.125,9.125l2.053-2.872a.616.616,0,0,1,.764-.2,18.535,18.535,0,0,0,5.333,1.607c.185.027.429.056.733.085a.667.667,0,0,1,.6.664Z" transform="translate(-3 -3)"/></svg>