<svg xmlns="http://www.w3.org/2000/svg" width="24" height="24" viewBox="0 0 24 24"><defs><style>.a{fill:#a4a4a4;}</style></defs><path class="a" d="M14,2c3.26,0,3.667.012,4.946.072a8.84,8.84,0,0,1,2.914.558,5.851,5.851,0,0,1,2.126,1.384A5.89,5.89,0,0,1,25.37,6.14a8.865,8.865,0,0,1,.558,2.914C25.984,10.333,26,10.74,26,14s-.012,3.667-.072,4.946a8.871,8.871,0,0,1-.558,2.914,6.127,6.127,0,0,1-3.51,3.51,8.865,8.865,0,0,1-2.914.558C17.667,25.984,17.26,26,14,26s-3.667-.012-4.946-.072A8.871,8.871,0,0,1,6.14,25.37a6.127,6.127,0,0,1-3.51-3.51,8.834,8.834,0,0,1-.558-2.914C2.016,17.667,2,17.26,2,14s.012-3.667.072-4.946A8.834,8.834,0,0,1,2.63,6.14,5.856,5.856,0,0,1,4.014,4.014,5.876,5.876,0,0,1,6.14,2.63a8.834,8.834,0,0,1,2.914-.558C10.333,2.016,10.74,2,14,2Zm0,6a6,6,0,1,0,6,6A6,6,0,0,0,14,8Zm7.8-.3a1.5,1.5,0,1,0-1.5,1.5A1.5,1.5,0,0,0,21.8,7.7ZM14,10.4A3.6,3.6,0,1,1,10.4,14,3.6,3.6,0,0,1,14,10.4Z" transform="translate(-2 -2)"/></svg>