<svg xmlns="http://www.w3.org/2000/svg" width="29.518" height="24" viewBox="0 0 29.518 24"><defs><style>.a{fill:#a4a4a4;}</style></defs><path class="a" d="M31.3,6.538a12.141,12.141,0,0,1-3.478.953A6.076,6.076,0,0,0,30.482,4.14a12.1,12.1,0,0,1-3.846,1.47,6.056,6.056,0,0,0-10.319,5.523A17.2,17.2,0,0,1,3.834,4.8,6.065,6.065,0,0,0,5.708,12.89a6.036,6.036,0,0,1-2.743-.757v.075a6.06,6.06,0,0,0,4.857,5.938,6.1,6.1,0,0,1-2.736.1,6.06,6.06,0,0,0,5.658,4.207,12.155,12.155,0,0,1-8.965,2.508,17.131,17.131,0,0,0,9.282,2.722c11.14,0,17.232-9.229,17.232-17.232,0-.261-.007-.524-.019-.782A12.3,12.3,0,0,0,31.3,6.539Z" transform="translate(-1.779 -3.688)"/></svg>