<svg xmlns="http://www.w3.org/2000/svg" width="30" height="24" viewBox="0 0 30 24"><defs><style>.a{fill:#a4a4a4;}</style></defs><path class="a" d="M31.314,7.747A46.587,46.587,0,0,1,32,16a46.587,46.587,0,0,1-.686,8.253,4.217,4.217,0,0,1-2.907,3.033C25.844,28,17,28,17,28s-8.84,0-11.408-.714a4.216,4.216,0,0,1-2.907-3.033A46.587,46.587,0,0,1,2,16a46.587,46.587,0,0,1,.686-8.253A4.217,4.217,0,0,1,5.592,4.714C8.16,4,17,4,17,4s8.844,0,11.407.714A4.216,4.216,0,0,1,31.314,7.747ZM14,21.25,23,16l-9-5.25Z" transform="translate(-2 -4)"/></svg>