<svg xmlns="http://www.w3.org/2000/svg" width="23.68" height="24" viewBox="0 0 23.68 24"><defs><style>.a{fill:#363636;}</style></defs><path class="a" d="M6.571,10H22.5l.571-2.286H8.857V5.429h15.68a1.143,1.143,0,0,1,1.109,1.421L22.789,18.278a1.143,1.143,0,0,1-1.109.865H5.429A1.143,1.143,0,0,1,4.286,18V4.286H2V2H5.429A1.143,1.143,0,0,1,6.571,3.143Zm0,16a2.286,2.286,0,1,1,2.286-2.286A2.286,2.286,0,0,1,6.571,26Zm13.714,0a2.286,2.286,0,1,1,2.286-2.286A2.286,2.286,0,0,1,20.286,26Z" transform="translate(-2 -2)"/></svg>