<svg xmlns="http://www.w3.org/2000/svg" width="86.643" height="76.17" viewBox="0 0 86.643 76.17"><defs><style>.a{fill:#363636;}</style></defs><g transform="translate(-1263 -1812)"><path class="a" d="M10,84.4V21.436a2.556,2.556,0,0,0,.13-.3c1.083-4.148,3.78-6.292,8.014-6.292H40.628v27.7A2.556,2.556,0,0,0,42.7,45.262a2.74,2.74,0,0,0,2.5-.921,11.805,11.805,0,0,1,16.311.054,2.556,2.556,0,0,0,3.509.379,2.783,2.783,0,0,0,1.007-2.393q0-13.246,0-26.48V14.883h.412c7.635,0,15.282-.054,22.917,0a7.083,7.083,0,0,1,6.5,4.191,17.555,17.555,0,0,1,.791,2.361V84.4a2.167,2.167,0,0,0-.108.227c-1.083,4.332-3.758,6.379-8.209,6.379h-70.7a7.581,7.581,0,0,1-7.245-5.22C10.227,85.335,10.119,84.869,10,84.4ZM34.108,60.5h34.43a7.582,7.582,0,0,1-.227,15.162H33.2a2.535,2.535,0,1,0-.13,5.069c12.022,0,24.033.087,36.043,0,7.668-.076,13.495-7.668,11.913-15.162a12.682,12.682,0,0,0-12.542-10.1H34.108l.715-.769a2.545,2.545,0,0,0,0-3.585,2.5,2.5,0,0,0-3.574,0c-1.755,1.69-3.422,3.368-5.069,5.058a2.394,2.394,0,0,0-.227,3.379q2.664,2.848,5.5,5.5a2.4,2.4,0,0,0,3.314-.141A2.523,2.523,0,0,0,35,61.519C34.78,61.226,34.509,60.977,34.108,60.5Z" transform="translate(1253 1797.16)"/><path class="a" d="M58.162,37.752a17.177,17.177,0,0,0-15.162,0V14.9H58.162Z" transform="translate(1255.74 1797.166)"/></g></svg>