<svg xmlns="http://www.w3.org/2000/svg" width="40.002" height="40" viewBox="0 0 40.002 40"><defs><style>.a{fill:#363636;}</style></defs><path class="a" d="M43,32.822V40.68A2.222,2.222,0,0,1,40.933,42.9c-.971.067-1.764.1-2.378.1A35.554,35.554,0,0,1,3,7.444q0-.92.1-2.378A2.222,2.222,0,0,1,5.32,3h7.858a1.111,1.111,0,0,1,1.107,1c.051.511.1.918.142,1.227a30.891,30.891,0,0,0,2.684,8.891,1.012,1.012,0,0,1-.327,1.26l-4.8,3.427A28.993,28.993,0,0,0,27.2,34.013l3.422-4.787a1.027,1.027,0,0,1,1.273-.331,30.891,30.891,0,0,0,8.889,2.678c.309.044.716.093,1.222.142a1.111,1.111,0,0,1,1,1.107Z" transform="translate(-3 -3)"/></svg>