<svg xmlns="http://www.w3.org/2000/svg" width="111.21" height="78.13" viewBox="0 0 111.21 78.13"><defs><style>.a{fill:#363636;}</style></defs><g transform="translate(21.15 0)"><g transform="translate(-31.136 -21.875)"><path class="a" d="M98.735,81.256c-.389.556-.806,1.056-1.6.778a1.6,1.6,0,0,1-1.083-1.68A15.166,15.166,0,0,0,90.4,68.534a15.486,15.486,0,0,0-19.277-.444l-.347.264a1.9,1.9,0,0,1-2.125.264,2.014,2.014,0,0,1-1.111-1.958c0-7.666,0-15.277,0-22.985a2.084,2.084,0,0,1,4.167.069v9.722a7.805,7.805,0,0,0,8.208,8.264H96.18a2.514,2.514,0,0,1,2.639,1.389Z" transform="translate(22.378 7.68)"/><path class="a" d="M23.2,72.894H12.089a1.944,1.944,0,0,1,0-3.889H23.2V67.02c0-1.764.667-2.4,2.444-2.4H35.63a3.4,3.4,0,0,0,1.542-.361,1.736,1.736,0,0,0,.792-2.167A1.889,1.889,0,0,0,35.977,60.7H25.338a1.958,1.958,0,0,1-2.125-2.18c0-1.292,0-2.6,0-3.9a2,2,0,0,1,2.194-2.208h9a4.486,4.486,0,0,0,1.292-.125,1.764,1.764,0,0,0,1.389-1.833,1.833,1.833,0,0,0-1.514-1.861,5.791,5.791,0,0,0-1.306-.069h-14.1a6.819,6.819,0,0,1-1.194,0,1.917,1.917,0,0,1,.167-3.805H23.2V42.493c0-1.611.694-2.305,2.333-2.319h9.111a2.6,2.6,0,0,0,1.389-.236,2.986,2.986,0,0,0,1.028-1.819c0-.6-.736-1.236-1.292-1.653-.347-.264-.972-.181-1.472-.194H12.88a8.513,8.513,0,0,1-1.194,0,1.906,1.906,0,0,1-.444-3.68,4.417,4.417,0,0,1,1.542-.236H23.241v-2.43a7.75,7.75,0,0,1,8.083-8.041H77.836a7.778,7.778,0,0,1,8.111,8.139v57.72c0,1.833-.667,2.5-2.472,2.5H62.42c-1.917,0-2.472-.528-2.611-2.486A15.624,15.624,0,0,0,28.63,87a5.863,5.863,0,0,1-.111,1.389,1.917,1.917,0,0,1-2.028,1.833H25.408a1.944,1.944,0,0,1-2.194-2.208q0-6.944,0-13.777Zm7.555,0h2.93a1.931,1.931,0,0,0,.125-3.861H27.963a1.93,1.93,0,0,0,.1,3.847C28.949,72.922,29.852,72.894,30.755,72.894ZM45.5,44.631a16.155,16.155,0,0,0-1.833,0,1.833,1.833,0,0,0-1.722,1.833c0,.972.458,1.792,1.389,1.889a18.055,18.055,0,0,0,3.972,0A1.708,1.708,0,0,0,48.7,46.437a1.819,1.819,0,0,0-1.681-1.792A12.694,12.694,0,0,0,45.5,44.631Z" transform="translate(0)"/><path class="a" d="M26.18,72.986A11.722,11.722,0,1,1,37.916,84.694,11.722,11.722,0,0,1,26.18,72.986Z" transform="translate(6.297 15.311)"/><path class="a" d="M80.064,84.694a11.694,11.694,0,1,1,8.31-3.41,11.722,11.722,0,0,1-8.31,3.41Z" transform="translate(22.702 15.311)"/><path class="a" d="M84.74,57.917H77.588A3.917,3.917,0,0,1,73.3,53.6V44.07c0-1.819.681-2.5,2.486-2.486a56.281,56.281,0,0,1,5.736.167,9,9,0,0,1,6.416,4.028c2.042,2.917,4.042,5.875,6.069,8.889a2,2,0,0,1-1.778,3.319C89.726,57.9,87.24,57.917,84.74,57.917Z" transform="translate(24.609 7.659)"/><path class="a" d="M15.306,47H16.82a1.931,1.931,0,0,1,.208,3.847,21.707,21.707,0,0,1-3.555,0,1.93,1.93,0,0,1-1.722-2.028A1.958,1.958,0,0,1,13.681,47Z" transform="translate(0.685 9.77)"/></g></g></svg>