<svg xmlns="http://www.w3.org/2000/svg" width="33.122" height="27.514" viewBox="0 0 33.122 27.514"><defs><style>.a{fill:#00c90d;}</style></defs><path class="a" d="M11.593,13.757a6.754,6.754,0,0,0,6.624-6.878A6.754,6.754,0,0,0,11.593,0,6.754,6.754,0,0,0,4.968,6.878,6.754,6.754,0,0,0,11.593,13.757Zm4.637,1.72h-.864a8.707,8.707,0,0,1-7.546,0H6.956A7.094,7.094,0,0,0,0,22.7v2.235a2.534,2.534,0,0,0,2.484,2.579H20.7a2.534,2.534,0,0,0,2.484-2.579V22.7A7.094,7.094,0,0,0,16.23,15.476Zm16.716-6.9-1.439-1.51a.6.6,0,0,0-.869-.005L25.214,12.65l-2.355-2.461a.6.6,0,0,0-.869-.005l-1.454,1.5a.655.655,0,0,0-.005.9l4.228,4.423a.6.6,0,0,0,.869.005L32.94,9.479A.66.66,0,0,0,32.946,8.576Z"/></svg>